<svg height='100px' width='100px'  fill="#ffffff" xmlns="http://www.w3.org/2000/svg" xmlns:xlink="http://www.w3.org/1999/xlink" version="1.1" preserveAspectRatio="none" x="0px" y="0px" viewBox="0 0 100 100"><g><g transform="matrix( 1, 0, 0, 1, 0,0) "><g><g><path fill="#ffffff" stroke="none" d=" M 84.55 24.55 Q 86.4732421875 22.6802734375 86.45 20 86.4732421875 17.3197265625 84.55 15.4 82.6802734375 13.5267578125 80 13.5 77.3197265625 13.5267578125 75.4 15.4 L 50 40.85 24.55 15.4 Q 22.6802734375 13.5267578125 20 13.5 17.3197265625 13.5267578125 15.4 15.4 13.5267578125 17.3197265625 13.5 20 13.5267578125 22.6802734375 15.4 24.55 L 40.85 50 15.4 75.4 Q 13.5267578125 77.3197265625 13.5 80 13.5267578125 82.6802734375 15.4 84.55 17.3197265625 86.4732421875 20 86.45 22.6802734375 86.4732421875 24.55 84.55 L 50 59.15 75.4 84.55 Q 77.3197265625 86.4732421875 80 86.45 82.6802734375 86.4732421875 84.55 84.55 86.4732421875 82.6802734375 86.45 80 86.4732421875 77.3197265625 84.55 75.4 L 59.15 50 84.55 24.55 Z"></path></g></g></g></g></svg>