<svg height='100px' width='100px'  fill="#ffffff" xmlns="http://www.w3.org/2000/svg" viewBox="0 0 24 24" enable-background="new 0 0 24 24" x="0px" y="0px"><g><path d="M14 11c-.129 0-.259-.025-.383-.076-.374-.155-.617-.52-.617-.924v-7c0-.552.447-1 1-1s1 .448 1 1v4.586l7.293-7.293c.391-.391 1.023-.391 1.414 0s.391 1.023 0 1.414l-9 9c-.191.191-.447.293-.707.293zM21 11h-7c-.553 0-1-.448-1-1s.447-1 1-1h7c.553 0 1 .448 1 1s-.447 1-1 1zM1 24c-.256 0-.512-.098-.707-.293-.391-.391-.391-1.023 0-1.414l9-9c.286-.286.715-.374 1.09-.217.373.154.617.52.617.924v7c0 .553-.448 1-1 1s-1-.447-1-1v-4.586l-7.293 7.293c-.195.195-.451.293-.707.293zM10 15h-7c-.552 0-1-.447-1-1s.448-1 1-1h7c.552 0 1 .447 1 1s-.448 1-1 1z"></path></g></svg>