<svg xmlns="http://www.w3.org/2000/svg" viewBox="0 0 400 100"><defs><style>.cls-1{fill:#fff;}</style></defs><g id="Layer_2" data-name="Layer 2"><g id="Layer_1-2" data-name="Layer 1"><path class="cls-1" d="M398.52,21.32a2.61,2.61,0,0,1,1.2,1.19l0,.07.07.18a2.56,2.56,0,0,1,.17,1V42.11a2.63,2.63,0,1,1-5.26,0V27.94l-12,6a2.63,2.63,0,1,1-2.36-4.7l11.08-5.55L380.4,18.14a2.63,2.63,0,1,1,2.36-4.7ZM400,76.26a2.66,2.66,0,0,1-.24,1.16,2.62,2.62,0,0,1-.53.75,2.45,2.45,0,0,1-.71.51l-15.76,7.88a2.63,2.63,0,1,1-2.36-4.7l11.08-5.54L380.4,70.77a2.63,2.63,0,1,1,2.36-4.7l12,6V57.89a2.63,2.63,0,1,1,5.26,0Zm-81,.06,11.08,5.54a2.63,2.63,0,1,1-2.35,4.7L312,78.68a2.61,2.61,0,0,1-1.2-1.19l0-.07-.08-.18a2.55,2.55,0,0,1-.16-1V57.89a2.63,2.63,0,0,1,5.26,0V72.06l12-6a2.63,2.63,0,1,1,2.35,4.7Zm-3.25-48.38V42.11a2.63,2.63,0,1,1-5.26,0V23.74a2.52,2.52,0,0,1,.24-1.16A2.63,2.63,0,0,1,312,21.32l15.77-7.88a2.63,2.63,0,1,1,2.35,4.7L319,23.68l11.08,5.55a2.63,2.63,0,1,1-2.35,4.7ZM354,.3a2.62,2.62,0,0,1,1.22-.3,2.69,2.69,0,0,1,1.23.3l15.74,7.87a2.63,2.63,0,0,1-2.35,4.71l-12-6V21.05a2.63,2.63,0,1,1-5.26,0V6.89l-12,6a2.63,2.63,0,1,1-2.35-4.71Zm2.45,99.4a2.69,2.69,0,0,1-1.23.3,2.62,2.62,0,0,1-1.22-.3L338.3,91.83a2.63,2.63,0,0,1,2.35-4.71l12,6V79a2.63,2.63,0,1,1,5.26,0V93.11l12-6a2.63,2.63,0,0,1,2.35,4.71Zm1.4-53.34V60.53a2.63,2.63,0,0,1-5.26,0V46.36L338.3,39.2a2.63,2.63,0,1,1,2.35-4.71l14.61,7.3,14.62-7.3a2.63,2.63,0,0,1,2.35,4.71Z"/><path class="cls-1" d="M9.84,75a23.43,23.43,0,0,1-8.16-4.06,4.45,4.45,0,0,1-.77-6.18,2.71,2.71,0,0,1,2.16-1.14,6,6,0,0,1,3,1,22,22,0,0,0,6.59,3.29,26.68,26.68,0,0,0,7.61,1c3.56,0,6.29-.63,8.19-1.87a6.09,6.09,0,0,0,2.86-5.45,4.69,4.69,0,0,0-2.67-4.28,35.17,35.17,0,0,0-8.89-2.89A52.91,52.91,0,0,1,9.29,51.21a14.7,14.7,0,0,1-6.07-4.69,12.06,12.06,0,0,1-2.05-7.24,13.61,13.61,0,0,1,2.56-8.12,16.89,16.89,0,0,1,7.14-5.6,25.24,25.24,0,0,1,10.28-2q10.46,0,17.05,5.56a5.64,5.64,0,0,1,1.35,1.57A4.57,4.57,0,0,1,39,35.29a2.71,2.71,0,0,1-2.16,1.14,4.15,4.15,0,0,1-1.35-.22,11,11,0,0,1-1.65-.81,24.52,24.52,0,0,0-5.82-3.25,19.63,19.63,0,0,0-6.91-1.07,13.59,13.59,0,0,0-7.87,2,6.42,6.42,0,0,0-2.89,5.59A5.12,5.12,0,0,0,13,43.3q2.57,1.62,8.71,3a59.13,59.13,0,0,1,10.57,3.26,15.75,15.75,0,0,1,6.22,4.57,11,11,0,0,1,2.16,7,13.3,13.3,0,0,1-2.52,8A16.45,16.45,0,0,1,31,74.51a26.57,26.57,0,0,1-10.5,1.94A37,37,0,0,1,9.84,75Z"/><path class="cls-1" d="M70.25,72.72a3,3,0,0,1-1.43,2.67,6.77,6.77,0,0,1-4.06.77l-2-.15Q50.5,75.14,50.49,62.84v-16H46.83a4.63,4.63,0,0,1-3-.88,3.62,3.62,0,0,1,0-5.12,4.63,4.63,0,0,1,3-.88h3.66V33.28a4.11,4.11,0,0,1,1.24-3.15A4.72,4.72,0,0,1,55.1,29a4.6,4.6,0,0,1,3.29,1.17,4.12,4.12,0,0,1,1.25,3.15V40h6.22a4.6,4.6,0,0,1,3,.88,3.6,3.6,0,0,1,0,5.12,4.6,4.6,0,0,1-3,.88H59.64V63.5c0,3.61,1.65,5.54,5,5.78l2,.15Q70.25,69.64,70.25,72.72Z"/><path class="cls-1" d="M101.6,42.83q3.63,3.69,3.62,11.23V71.92A4.15,4.15,0,0,1,104.05,75a4.45,4.45,0,0,1-3.22,1.13A4.29,4.29,0,0,1,97.72,75a4.11,4.11,0,0,1-1.2-3.07V70.31a9.55,9.55,0,0,1-3.92,4.46,11.76,11.76,0,0,1-6.18,1.61,14.42,14.42,0,0,1-6.51-1.46,11.54,11.54,0,0,1-4.61-4,10.12,10.12,0,0,1-1.69-5.71,9.07,9.07,0,0,1,2-6.22q2-2.26,6.55-3.29a60,60,0,0,1,12.52-1h1.83V53c0-2.39-.52-4.13-1.54-5.23s-2.68-1.64-5-1.64a15.54,15.54,0,0,0-4.31.62q-2.2.61-5.2,1.79a7.37,7.37,0,0,1-2.78,1,2.76,2.76,0,0,1-2.16-1A3.61,3.61,0,0,1,74.71,46a3.78,3.78,0,0,1,.62-2.16,6,6,0,0,1,2.09-1.72,24.08,24.08,0,0,1,6.11-2.19,31.27,31.27,0,0,1,7-.81Q98,39.13,101.6,42.83ZM94.21,67.34A8.84,8.84,0,0,0,96.52,61V59.48H95.2a49.44,49.44,0,0,0-7.61.44,7.37,7.37,0,0,0-3.88,1.53,3.91,3.91,0,0,0-1.17,3,5,5,0,0,0,1.65,3.84,5.79,5.79,0,0,0,4.06,1.5A7.79,7.79,0,0,0,94.21,67.34Z"/><path class="cls-1" d="M137.49,40.08a3.57,3.57,0,0,1,1.1,2.86,4,4,0,0,1-1,2.93,5.83,5.83,0,0,1-3.44,1.24l-2.19.22q-4.32.44-6.33,2.93a9.51,9.51,0,0,0-2,6.22V71.84a4.06,4.06,0,0,1-1.31,3.26,4.91,4.91,0,0,1-3.3,1.13,4.75,4.75,0,0,1-3.25-1.13,4.11,4.11,0,0,1-1.28-3.26V43.52a3.89,3.89,0,0,1,1.28-3.14,4.71,4.71,0,0,1,3.18-1.1,4.38,4.38,0,0,1,3.07,1.06,3.9,3.9,0,0,1,1.18,3V46.3a10.79,10.79,0,0,1,4.13-5,12.74,12.74,0,0,1,6.11-2l1-.07A3.94,3.94,0,0,1,137.49,40.08Z"/><path class="cls-1" d="M168.08,72.72a3,3,0,0,1-1.43,2.67,6.77,6.77,0,0,1-4.06.77l-2-.15q-12.3-.87-12.3-13.17v-16h-3.65a4.61,4.61,0,0,1-3-.88,3.62,3.62,0,0,1,0-5.12,4.61,4.61,0,0,1,3-.88h3.65V33.28a4.12,4.12,0,0,1,1.25-3.15A4.71,4.71,0,0,1,152.93,29a4.62,4.62,0,0,1,3.3,1.17,4.11,4.11,0,0,1,1.24,3.15V40h6.22a4.63,4.63,0,0,1,3,.88,3.62,3.62,0,0,1,0,5.12,4.63,4.63,0,0,1-3,.88h-6.22V63.5q0,5.41,5,5.78l2,.15Q168.08,69.64,168.08,72.72Z"/><path class="cls-1" d="M240.67,72.06a3.66,3.66,0,0,1-1.35,2.86,4.63,4.63,0,0,1-3.11,1.17,4.1,4.1,0,0,1-2.2-.63,4.16,4.16,0,0,1-1.61-1.93L228,63.72H202.25l-4.39,9.81a4.16,4.16,0,0,1-1.61,1.93,4.24,4.24,0,0,1-2.27.63,4.66,4.66,0,0,1-3.07-1.17,3.6,3.6,0,0,1-1.39-2.86,4.54,4.54,0,0,1,.44-1.9l20.2-43.39a4.6,4.6,0,0,1,2-2.23,5.81,5.81,0,0,1,5.78,0,4.7,4.7,0,0,1,2,2.23l20.27,43.39A4.54,4.54,0,0,1,240.67,72.06ZM205.47,56.4h19.32l-9.66-21.73Z"/><path class="cls-1" d="M289.92,72.43a3.44,3.44,0,0,1-1.36,2.78,4.9,4.9,0,0,1-3.18,1.1,4.79,4.79,0,0,1-4-2.2l-9.73-14.78A9.37,9.37,0,0,0,268.51,56a8.43,8.43,0,0,0-4.28-.95h-7.17V71.48A4.8,4.8,0,0,1,255.82,75a4.47,4.47,0,0,1-3.37,1.28,4.55,4.55,0,0,1-3.4-1.28,4.66,4.66,0,0,1-1.28-3.47V28.67a4.37,4.37,0,0,1,1.2-3.29,4.6,4.6,0,0,1,3.33-1.17h18.3q8.77,0,13.35,3.91t4.57,11.31a14.28,14.28,0,0,1-3.4,9.84,16.09,16.09,0,0,1-9.62,4.94A9.19,9.19,0,0,1,279.23,56a16,16,0,0,1,3.15,3.66L289,69.87A4.64,4.64,0,0,1,289.92,72.43Zm-12.81-26.6q2.49-2,2.49-6.18t-2.49-6.19q-2.49-1.93-7.83-1.94H257V47.84h12.29Q274.62,47.84,277.11,45.83Z"/></g></g></svg>